<?xml version="1.0" encoding="utf-8"?>
<!-- Generator: Adobe Illustrator 24.3.0, SVG Export Plug-In . SVG Version: 6.00 Build 0)  -->
<svg version="1.1" id="svg2" xmlns:svg="http://www.w3.org/2000/svg"
	 xmlns="http://www.w3.org/2000/svg" xmlns:xlink="http://www.w3.org/1999/xlink" x="0px" y="0px" viewBox="0 0 956.7 519.8"
	 style="enable-background:new 0 0 956.7 519.8;" xml:space="preserve">
<style type="text/css">
	.st0{fill:#FFFFFF;}
</style>
<g id="layer1" transform="translate(827.88999,968.22013)">
	<path id="path8308" class="st0" d="M-791.8-883.5c0-27.2,21.9-49.3,48.9-49.3H44.5c27,0,48.8,22.1,48.8,49.3v1.6h-885.2V-883.5"/>
	<path id="path8312" class="st0" d="M93.4-534.4v1.2c0,27.2-21.9,49.3-48.8,49.3H-743c-27,0-48.9-22.1-48.9-49.3v-1.2H93.4"/>
	<path id="path8316" class="st0" d="M-179.2-708.8c0,68.9,55.4,124.8,123.7,124.8c68.3,0,123.7-55.9,123.7-124.8
		c0-68.9-55.4-124.8-123.7-124.8C-123.8-833.7-179.2-777.8-179.2-708.8z M-768.8-708.8c0,68.9,55.4,124.8,123.7,124.8
		c68.3,0,123.7-55.9,123.7-124.8c0-68.9-55.4-124.8-123.7-124.8C-713.4-833.7-768.8-777.8-768.8-708.8z M93.4-558h-609.8
		c11-7.8,21.2-18.4,32.4-32.8l62.1-80l27.1,34.6l30.2-40.5l-26.4-33.9l63.2-81.4c20.1-25.8-18.3-56.2-38.4-30.4l-55.9,72l-56.8-72.9
		c-20.1-25.8-58.4,4.7-38.3,30.5l64.2,82.3l-69.5,89.4c-24.7,31.8-49.3,60.9-98.2,63.2h-171.3v-300.2h606.5
		c-10.4,7.7-20.3,18-30.9,31.8l-62.1,80l-27.2-34.6l-30.2,40.5l26.4,33.9l-63.2,81.4c-20.1,25.8,18.3,56.2,38.4,30.4l55.9-72
		l56.8,72.9c20.1,25.8,58.4-4.7,38.3-30.4l-64.2-82.3l69.5-89.4c22.7-29.2,45.3-56.2,86.8-62.1H93.4V-558z M-129.6-708.8
		c0-41.3,33.2-74.7,74-74.7s74,33.4,74,74.7c0,41.3-33.1,74.7-74,74.7S-129.6-667.6-129.6-708.8z M-719.2-708.8
		c0-41.3,33.2-74.7,74-74.7c40.9,0,74,33.4,74,74.7c0,41.3-33.2,74.7-74,74.7C-686-634.1-719.2-667.6-719.2-708.8"/>
</g>
</svg>
